<svg id="Layer_3" enable-background="new 0 0 64 64" height="512" viewBox="0 0 64 64" width="512" xmlns="http://www.w3.org/2000/svg"><path d="m19.328 44.722h2v1.9h-2z" transform="matrix(.707 -.707 .707 .707 -26.341 27.751)"/><path d="m16.149 36.684-1.459-1.368-2.966 3.164 5.569 5.57 1.414-1.414-4.2-4.2z"/><path d="m38.77 49.356c1.337-.801 2.23-2.263 2.23-3.891 0-1.212-.472-2.351-1.328-3.207l-2.695-2.695c4.903-3.176 10.377-5.413 16.22-6.582l-.393-1.961c-8.605 1.721-16.446 5.657-22.916 11.454l-12.733-12.733c5.107-5.56 8.904-12.312 10.98-19.574l.826-2.893-1.924-.549-.826 2.893c-2.033 7.115-5.782 13.729-10.842 19.125l-6.144 6.552c-.789.846-1.225 1.948-1.225 3.105v.134c0 .852.245 1.663.682 2.37l-.975.975c-1.101 1.1-1.707 2.564-1.707 4.121s.606 3.021 1.707 4.121l2.172 2.172c1.085 1.085 2.587 1.707 4.121 1.707s3.036-.622 4.121-1.707l.975-.975c.708.437 1.518.682 2.371.682 1.25 0 2.457-.523 3.312-1.435l1.148-1.225 12.331 12.331c.856.857 1.996 1.329 3.207 1.329 2.501 0 4.535-2.035 4.535-4.536 0-1.212-.472-2.351-1.328-3.207zm-.512-5.685c.478.479.742 1.116.742 1.793 0 1.094-.714 2.057-1.721 2.401l-4.905-4.905c.944-.792 1.917-1.544 2.916-2.255zm-24.258 8.329c-1.008 0-1.994-.409-2.707-1.121l-2.172-2.172c-.723-.723-1.121-1.685-1.121-2.707s.398-1.984 1.121-2.707l.879-.879 7.586 7.586-.878.878c-.714.713-1.7 1.122-2.708 1.122zm9.319-2.802c-.943 1.004-2.676 1.032-3.649.059l-8.926-8.927c-.479-.48-.744-1.118-.744-1.796v-.134c0-.647.244-1.265.687-1.737l5.111-5.451 12.627 12.627c-.548.533-1.089 1.076-1.616 1.637zm18.146 11.802c-.677 0-1.313-.264-1.793-.743l-12.377-12.376.972-1.037c.836-.892 1.703-1.748 2.597-2.566l12.393 12.393c.479.479.743 1.116.743 1.793 0 1.398-1.138 2.536-2.535 2.536z"/><circle cx="41" cy="58" r="1"/><path d="m24.787 26.564-1.65-1.128c1.691-2.476 3.174-5.116 4.404-7.848l1.824.822c-1.28 2.839-2.82 5.582-4.578 8.154z"/><path d="m30.232 16.373-1.855-.746c.261-.648.507-1.302.74-1.961l1.885.669c-.243.684-.499 1.364-.77 2.038z"/><path d="m54.879 34c-.822 0-1.626-.333-2.207-.914l-25.758-25.758c-.59-.589-.914-1.373-.914-2.207 0-1.721 1.4-3.121 3.121-3.121.822 0 1.626.333 2.207.914l25.758 25.758c.59.589.914 1.373.914 2.207 0 1.721-1.4 3.121-3.121 3.121z" fill="#f0bc5e"/><path d="m47 15c-1.654 0-3-1.346-3-3s1.346-3 3-3 3 1.346 3 3-1.346 3-3 3zm0-4c-.552 0-1 .449-1 1s.448 1 1 1 1-.449 1-1-.448-1-1-1z"/><path d="m54 12h-2c0-2.757-2.243-5-5-5v-2c3.859 0 7 3.14 7 7z"/><path d="m58 12h-2c0-4.962-4.037-9-9-9v-2c6.065 0 11 4.935 11 11z"/><path d="m28 38.414-6.414-6.414 4.414-4.414 6.414 6.414z" fill="#f0bc5e"/></svg>