<svg id="stip" xmlns="http://www.w3.org/2000/svg" viewBox="0 0 915.18 437.28"><defs><style>.cls-1{fill:#fff;}.cls-1,.cls-2{fill-rule:evenodd;}.cls-2{fill:#e3ab36;}</style></defs><title>logo1</title><path id="_ep" data-name=" ep" class="cls-1" d="M622.48,245.43c31.79,0,36.65-26.05,36.65-44.16,0,0-9.72,7.07-43.72,7.07H519.16V120H649c27.82,0,27.82-37.09,27.82-37.09H471v287c0,25.17,42.39,25.17,42.39,25.17H649c26.93,0,27.82-34.88,27.82-37.09H519.16V245.43ZM727.55,374.35c0,25.17,48.12,25.17,48.12,25.17V291.79h34.89c68,0,127.6-21.2,127.6-100.67v-8c0-81.69-59.61-100.23-127.6-100.23h-83V374.36Zm83-254.32c46.8,0,79.47,12.36,79.47,67.11,0,58.73-32.67,67.56-79.47,67.56H775.67V120Z" transform="translate(-22.98 -6.07)"/><path id="o_yellow_strip" data-name="o yellow strip" class="cls-2" d="M417.42,227.06c14.56,97.38-61.84,198.17-161.26,213.6-122.92,19.09-189-69.55-192.78-73.78C13.13,290.77,7.93,213.28,58.09,136.4c37.39-57.3,93.58-83.59,161.48-85.86-50.08,6.08-91.7,28.17-123.8,67C63.45,156.61,50.7,202.25,56.54,252.12c10.68,91.06,88.75,158.35,180.93,158.13C322.52,410,414.36,342.82,417.42,227.06Z" transform="translate(-22.98 -6.07)"/><path id="o_black_strip" data-name="o black strip" class="cls-1" d="M135.58,360.66c10.8,5,21.3,10.74,32.46,14.64s22.87,7.72,34.5,8.36a216,216,0,0,0,48.26-2.54c18.42-3.18,35.59-11,51.15-21.77,56.29-33,63.77-88.29,64.93-114.32.75-16.72-.22-33.49-6.41-49.43-5-13-10.13-25.95-15.58-39.9l23.88-27.39A178.51,178.51,0,0,1,404,237.46,143,143,0,0,1,384.9,305.8c-11.75,20.59-26.11,38.36-44.41,53.2-14,11.35-29.64,19.73-46.4,26.09-20.53,7.8-41.92,10.82-63.79,10a166.08,166.08,0,0,1-34.77-5.2,177.43,177.43,0,0,1-55.94-25.33c-1.6-1.07-3-2.42-4.53-3.63ZM74.41,271.88C58.8,216.32,69.81,147.14,129.9,97.26c57.57-47.8,134.35-49.21,189.17-15.57-9,7.49-17.89,15.09-27.09,22.33-1.37,1.08-4.44,1.18-6.17.44-12.61-5.41-25.29-10.36-38.92-12.84-20.08-3.64-39.77-3.68-59.88,1-18.73,4.33-36,11.09-51.71,22.05a157.57,157.57,0,0,0-33,30.82c-10.23,12.75-17.47,26.9-23.13,41.88a105.14,105.14,0,0,0-5.54,24.77A327,327,0,0,0,71.37,249C71.35,256.63,73.33,264.26,74.41,271.88Z" transform="translate(-22.98 -6.07)"/><path id="check-2" class="cls-2" d="M498.05,6.07S323.88,73.24,256.94,317.63l-51.48-6.78S249.71,61.17,498.05,6.07Z" transform="translate(-22.98 -6.07)"/><path id="check-3" class="cls-1" d="M113.64,194l47.41-67.73s81.79,80.09,96.18,191c0,0-4.66,6.51-9.49,9.48L204.4,337.59S188.61,256.05,113.64,194Z" transform="translate(-22.98 -6.07)"/></svg>