<svg id="stip" xmlns="http://www.w3.org/2000/svg" width="1000" height="450" viewBox="0 0 1000 450">
  <defs>
    <style>
      .cls-1 {
        fill: #141310;
      }

      .cls-1, .cls-2, .cls-3 {
        fill-rule: evenodd;
      }

      .cls-2 {
        fill: #e3ab36;
      }
    </style>
  </defs>
  <path id="_ep" data-name="  ep" class="cls-1" d="M622.478,245.425c31.791,0,36.648-26.05,36.648-44.154,0,0-9.714,7.065-43.712,7.065H519.158V120.028H648.971c27.817,0,27.817-37.089,27.817-37.089H471.03v287c0,25.168,42.388,25.168,42.388,25.168H648.971c26.933,0,27.817-34.882,27.817-37.089H519.158V245.425h103.32Zm105.069,128.93c0,25.167,48.127,25.167,48.127,25.167V291.787h34.882c68,0,127.6-21.194,127.6-100.671v-7.948c0-81.684-59.608-100.229-127.6-100.229H727.547V374.355Zm83.009-254.327c46.8,0,79.477,12.363,79.477,67.114,0,58.725-32.674,67.556-79.477,67.556H775.674V120.028h34.882Z"/>
  <path id="o_yellow_strip" data-name="o yellow strip" class="cls-2" d="M417.416,227.062c14.563,97.374-61.836,198.168-161.257,213.6C133.237,459.753,67.133,371.11,63.381,366.876,13.126,290.77,7.933,213.278,58.089,136.4,95.477,79.1,151.673,52.812,219.574,50.542c-50.088,6.075-91.706,28.165-123.806,66.984C63.448,156.61,50.7,202.253,56.542,252.115c10.676,91.069,88.752,158.352,180.931,158.131C322.518,410.041,414.355,342.816,417.416,227.062Z"/>
  <path id="o_black_strip" data-name="o black strip" class="cls-3" d="M135.58,360.663c10.795,4.957,21.3,10.734,32.465,14.641s22.861,7.719,34.5,8.352a216.194,216.194,0,0,0,48.253-2.531c18.418-3.187,35.587-11.032,51.148-21.771,56.292-33.023,63.77-88.294,64.934-114.32,0.747-16.719-.222-33.492-6.412-49.435-5.041-12.986-10.131-25.953-15.58-39.9l23.881-27.391a178.5,178.5,0,0,1,35.213,109.152A143.036,143.036,0,0,1,384.905,305.8c-11.752,20.592-26.114,38.357-44.412,53.2-13.988,11.345-29.643,19.726-46.4,26.086-20.535,7.8-41.927,10.823-63.789,10.018a166.643,166.643,0,0,1-34.777-5.2,177.582,177.582,0,0,1-55.935-25.331c-1.6-1.077-3.027-2.418-4.535-3.637ZM74.409,271.884C58.8,216.317,69.807,147.139,129.9,97.256c57.57-47.793,134.35-49.209,189.168-15.561-8.989,7.482-17.89,15.089-27.084,22.326-1.37,1.079-4.441,1.176-6.17.435C273.2,99.051,260.517,94.1,246.888,91.623c-20.075-3.643-39.773-3.684-59.877.972-18.729,4.338-36.024,11.1-51.712,22.055a157.429,157.429,0,0,0-32.963,30.823c-10.222,12.744-17.467,26.9-23.127,41.88a104.712,104.712,0,0,0-5.537,24.763A325.278,325.278,0,0,0,71.367,249C71.353,256.626,73.328,264.256,74.409,271.884Z"/>
  <path id="check-2" data-name="check" class="cls-2" d="M498.052,6.071S323.878,73.243,256.936,317.625l-51.474-6.773S249.712,61.173,498.052,6.071Z"/>
  <path id="check-3" data-name="check" class="cls-1" d="M113.641,194l47.41-67.729s81.786,80.09,96.176,191c0,0-4.653,6.507-9.482,9.482L204.4,337.59S188.608,256.046,113.641,194Z"/>
</svg>
