<?xml version="1.0" ?><!DOCTYPE svg  PUBLIC '-//W3C//DTD SVG 1.1//EN'  'http://www.w3.org/Graphics/SVG/1.1/DTD/svg11.dtd'><svg enable-background="new 0 0 512 512" height="512px" version="1.1" viewBox="0 0 512 512" width="512px" xml:space="preserve" xmlns="http://www.w3.org/2000/svg" xmlns:xlink="http://www.w3.org/1999/xlink"><g id="_x30_1"/><g id="_x30_2"/><g id="_x30_3"/><g id="_x30_4"/><g id="_x30_5"/><g id="_x30_6"/><g id="_x30_7"/><g id="_x30_8"/><g id="_x30_9"/><g id="_x31_0"/><g id="_x31_1"/><g id="_x31_2"/><g id="_x31_3"/><g id="_x31_4"/><g id="_x31_5"/><g id="_x31_6"/><g id="_x31_7"/><g id="_x31_8"/><g id="_x31_9"/><g id="_x32_0"/><g id="_x32_1"/><g id="_x32_2"/><g id="_x32_3"/><g id="_x32_4"/><g id="_x32_5"/><g id="_x32_6"/><g id="_x32_7"/><g id="_x32_8"/><g id="_x32_9"/><g id="_x33_0"/><g id="_x33_1"/><g id="_x33_2"/><g id="_x33_3"/><g id="_x33_4"/><g id="_x33_5"/><g id="_x33_6"/><g id="_x33_7"/><g id="_x33_8"/><g id="_x33_9"/><g id="_x34_0"/><g id="_x34_1"/><g id="_x34_2"/><g id="_x34_3"/><g id="_x34_4"/><g id="_x34_5"/><g id="_x34_6"/><g id="_x34_7"/><g id="_x34_8"/><g id="_x34_9"/><g id="_x35_0"><g><path d="M430.236,356.207c-4.966-2.525-11.04-0.549-13.566,4.417c-0.778,1.529-1.608,3.038-2.467,4.483    c-2.845,4.79-1.268,10.98,3.522,13.825c1.615,0.959,3.39,1.416,5.142,1.416c3.443,0,6.798-1.764,8.684-4.938    c1.082-1.821,2.125-3.718,3.102-5.637C437.179,364.807,435.201,358.733,430.236,356.207z" fill="#E2247A"/><path d="M456.081,201.812c20.854-10.344,37.874-22.866,45.203-40.309c8.206-19.606-1.91-42.603-22.547-51.262    c-5.82-2.445-11.242-3.633-16.576-3.633c-6.192,0-11.726,1.633-16.701,4.067c-3.226-9.745-9.617-18.438-23.008-24.051    c-5.262-2.208-10.783-3.327-16.408-3.327c-15.946,0-30.061,9.087-35.958,23.147c-6.416,15.287-4.919,33.23,0.409,52.315    c-9.4-1.633-18.968-2.469-28.609-2.469c-16.176,0-32.12,2.318-47.491,6.897c-26.791-30.265-63.361-49.556-103.141-54.621    c10.425-17.801,16.74-35.439,14.166-52.392c-2.866-18.834-19.479-32.503-39.503-32.503c-2.145,0-4.314,0.165-6.461,0.49    c-14.359,2.196-22.676,9.076-28.182,17.741c-6.314-5.317-14.182-9.154-24.575-9.154c-2.401,0-4.949,0.204-7.561,0.603    c-10.597,1.609-20.004,7.003-26.491,15.191c-6.654,8.399-9.456,18.707-7.887,29.032c2.683,17.558,14.688,32.984,30.775,47.302    c-24.484,12.301-45.525,30.431-61.453,53.148c-19.622,27.986-29.994,60.911-29.994,95.213c0,91.536,74.48,166.005,166.029,166.005    c15.438,0,30.629-2.102,45.259-6.249c10.494,11.808,22.835,21.586,36.807,29.045c26.735,17.2,57.743,26.29,89.703,26.29    c91.549,0,166.029-74.47,166.029-166.006C507.914,276.194,489.197,233.106,456.081,201.812z M388.69,114.25    c2.746-6.547,9.557-10.777,17.353-10.777c2.931,0,5.825,0.591,8.605,1.757c9.327,3.91,12.407,9.098,13.731,23.131    c0.349,3.702,2.706,6.911,6.134,8.352c3.427,1.44,7.37,0.879,10.259-1.46c7.428-6.016,12.466-8.47,17.388-8.47    c2.599,0,5.465,0.673,8.766,2.061c10.391,4.359,15.66,15.516,11.75,24.855c-8.571,20.4-41.147,33.811-74.697,46.303    C393.393,167.322,380.119,134.672,388.69,114.25z M84.704,74.536c-0.717-4.72,0.617-9.502,3.756-13.464    c3.305-4.172,8.172-6.932,13.716-7.773c1.617-0.248,3.139-0.373,4.521-0.373c6.188,0,11.089,2.064,19.249,12.953    c2.229,2.975,5.911,4.485,9.591,3.923c3.675-0.559,6.746-3.095,7.989-6.599c4.714-13.283,8.971-17.566,18.967-19.095    c1.137-0.173,2.288-0.26,3.422-0.26c9.977,0,18.202,6.461,19.556,15.359c2.35,15.477-7.352,34.199-21.046,53.774    c-0.361,0.514-0.718,1.028-1.085,1.544c-0.151,0.214-0.306,0.429-0.458,0.643c-5.277,7.392-11.125,14.975-17.027,22.488    c-6.061-4.169-12.068-8.366-17.823-12.593c-0.402-0.296-0.81-0.592-1.209-0.888c-0.152-0.113-0.302-0.226-0.454-0.339    c-1.928-1.434-3.822-2.868-5.666-4.302c-0.028-0.022-0.06-0.038-0.089-0.06C101.805,104.901,87.061,89.957,84.704,74.536z     M170.116,419.067c-80.423,0-145.853-65.418-145.853-145.829c0-58.242,35.416-111.489,88.694-134.233    c9.373,7.034,19.474,13.932,29.289,20.635c0.006,0.004,0.013,0.008,0.02,0.012c0.245,0.167,0.496,0.318,0.75,0.461    c0.072,0.04,0.146,0.077,0.219,0.115c0.201,0.106,0.404,0.206,0.61,0.297c0.068,0.031,0.137,0.061,0.207,0.09    c0.248,0.104,0.499,0.197,0.751,0.28c0.02,0.006,0.04,0.015,0.06,0.021c1.001,0.321,2.036,0.482,3.066,0.482    c0.176,0,0.352-0.02,0.527-0.029c0.051-0.003,0.102-0.005,0.153-0.008c0.281-0.019,0.56-0.049,0.837-0.091    c0.02-0.003,0.04-0.007,0.06-0.01c1.2-0.189,2.362-0.593,3.432-1.204c0.016-0.009,0.032-0.017,0.048-0.026    c0.227-0.132,0.447-0.275,0.665-0.425c0.074-0.051,0.147-0.102,0.221-0.155c0.186-0.136,0.369-0.277,0.546-0.426    c0.108-0.091,0.212-0.187,0.316-0.282c0.145-0.132,0.29-0.262,0.427-0.404c0.192-0.196,0.373-0.405,0.551-0.619    c0.043-0.052,0.092-0.097,0.134-0.15c0.009-0.012,0.019-0.023,0.028-0.035l0,0c0.005-0.006,0.01-0.013,0.015-0.019    c6.788-8.579,13.63-17.23,19.987-25.897c0.563-0.767,1.117-1.531,1.672-2.297c0.139-0.192,0.281-0.385,0.419-0.577    c0.264-0.365,0.534-0.73,0.796-1.095c41.252,2.414,79.425,22.156,105.431,54.742c0.212,0.262,0.417,0.524,0.624,0.786    c0.245,0.312,0.49,0.623,0.741,0.935c0.049,0.062,0.098,0.129,0.147,0.192c0.641,0.832,1.271,1.671,1.892,2.514    c0.158,0.222,0.318,0.438,0.479,0.653c0.528,0.725,1.047,1.455,1.562,2.188c0.253,0.358,0.508,0.714,0.74,1.072    c0.042,0.065,0.085,0.13,0.129,0.195l0.692,1.013c0.149,0.221,0.301,0.44,0.448,0.662c0.257,0.39,0.514,0.794,0.771,1.202    c0.047,0.075,0.096,0.15,0.145,0.224c0.263,0.393,0.526,0.784,0.766,1.177c0.048,0.078,0.097,0.156,0.147,0.233    c0.166,0.255,0.332,0.517,0.498,0.778c0.108,0.17,0.216,0.34,0.324,0.509c0.176,0.285,0.346,0.574,0.52,0.86    c0.044,0.073,0.087,0.147,0.131,0.22l0.249,0.412c0.044,0.075,0.089,0.149,0.135,0.224c0.134,0.216,0.261,0.438,0.39,0.658    c0.196,0.337,0.393,0.674,0.596,1.005c0.087,0.15,0.17,0.301,0.254,0.452c0.169,0.303,0.339,0.605,0.527,0.925    c0.295,0.501,0.568,1.002,0.877,1.568c0.018,0.034,0.037,0.067,0.056,0.1c0.087,0.155,0.168,0.31,0.25,0.465    c0.144,0.271,0.289,0.542,0.439,0.813c0.313,0.577,0.626,1.156,0.939,1.755l0.092,0.186c0.168,0.343,0.345,0.688,0.527,1.029    c0.065,0.129,0.13,0.258,0.195,0.387l0.717,1.434c0.246,0.571,0.487,1.058,0.681,1.446c0.292,0.605,0.585,1.21,0.854,1.838    c0.077,0.179,0.159,0.355,0.246,0.53c0.09,0.181,0.183,0.382,0.277,0.587c0.142,0.316,0.281,0.635,0.42,0.952    c0.029,0.066,0.058,0.132,0.086,0.198c0.185,0.43,0.371,0.86,0.563,1.289l0.122,0.289c0.069,0.198,0.144,0.393,0.225,0.586    c0.344,0.818,0.687,1.637,1.031,2.481l0.332,0.843c0.299,0.762,0.601,1.524,0.879,2.308c0.073,0.212,0.156,0.435,0.253,0.686    c0.091,0.249,0.175,0.5,0.264,0.75c0.234,0.651,0.47,1.307,0.685,1.97c0.02,0.061,0.04,0.122,0.061,0.182l0.247,0.714    c0.3,0.875,0.575,1.752,0.851,2.628c0.003,0.01,0.031,0.098,0.034,0.108l1.172,3.908c3.626,12.801,5.465,26.168,5.465,39.73    c0,37.077-14.251,72.82-39.443,99.741c-0.605-0.995-1.204-1.977-1.799-2.952c-0.866-1.42-1.697-2.785-2.509-4.128    c-0.334-0.555-0.671-1.111-0.997-1.656c-0.124-0.207-0.243-0.409-0.366-0.615c-0.477-0.801-0.946-1.595-1.401-2.377    c-0.046-0.08-0.092-0.159-0.138-0.238c-6.044-10.423-10.118-19.488-11.127-32.095c10.55-16.662,16.109-35.835,16.109-55.68    c0-1.375-0.03-2.783-0.089-4.188c-0.001-0.044-0.002-0.088-0.004-0.131c-0.028-0.706-0.059-1.436-0.108-2.15    c-0.004-0.167-0.013-0.335-0.026-0.502l-0.146-1.859c-0.005-0.133-0.012-0.266-0.022-0.399c-0.06-0.789-0.146-1.552-0.236-2.335    c-0.006-0.066-0.013-0.132-0.02-0.197c-0.067-0.612-0.156-1.231-0.236-1.849c-0.024-0.183-0.045-0.366-0.07-0.548    c-0.202-1.49-0.433-2.988-0.706-4.494c-0.019-0.105-0.042-0.208-0.062-0.314c-0.24-1.305-0.512-2.614-0.804-3.924    c-0.077-0.342-0.154-0.683-0.233-1.024c-0.087-0.372-0.164-0.743-0.254-1.115c-0.031-0.127-0.066-0.256-0.104-0.385    c-0.091-0.376-0.191-0.758-0.292-1.142l-0.153-0.586c-0.045-0.18-0.097-0.359-0.152-0.537c-0.072-0.265-0.146-0.528-0.22-0.792    c-0.008-0.028-0.016-0.057-0.024-0.085c-0.073-0.26-0.147-0.519-0.215-0.779c-0.07-0.271-0.152-0.538-0.245-0.802    c-0.169-0.587-0.355-1.179-0.548-1.787c-0.042-0.134-0.088-0.267-0.136-0.398l-0.029-0.087c-0.062-0.188-0.125-0.376-0.188-0.564    l-0.479-1.445c-0.045-0.136-0.093-0.271-0.144-0.404c-0.207-0.542-0.414-1.112-0.62-1.681c-0.03-0.081-0.064-0.16-0.096-0.241    c-0.177-0.471-0.366-0.936-0.55-1.404c-0.342-0.885-0.694-1.748-1.059-2.595c-0.288-0.676-0.585-1.347-0.887-2.017    c-0.07-0.154-0.141-0.31-0.211-0.462l-0.498-1.086c-0.072-0.161-0.158-0.325-0.234-0.486c-0.328-0.689-0.662-1.376-1.005-2.059    c-0.223-0.456-0.455-0.913-0.695-1.368l-0.233-0.465c-0.031-0.063-0.063-0.125-0.096-0.186c-0.141-0.267-0.291-0.524-0.435-0.783    c-0.229-0.423-0.465-0.842-0.7-1.262c-0.098-0.181-0.194-0.364-0.303-0.539c-0.112-0.179-0.212-0.37-0.313-0.554l-0.275-0.494    c-0.131-0.229-0.274-0.46-0.448-0.73c-0.006-0.011-0.013-0.021-0.02-0.032l-0.166-0.281c-0.016-0.026-0.033-0.053-0.049-0.079    c-0.347-0.577-0.704-1.148-1.063-1.72c-0.286-0.482-0.594-0.973-0.932-1.466l-0.104-0.163c-0.184-0.29-0.368-0.573-0.558-0.848    c-0.015-0.023-0.033-0.047-0.048-0.071c-0.246-0.367-0.496-0.731-0.747-1.096c-0.071-0.104-0.143-0.21-0.215-0.313l-0.221-0.321    c-0.043-0.065-0.088-0.13-0.133-0.195c-0.12-0.171-0.245-0.343-0.373-0.516l-0.071-0.097c-0.088-0.135-0.18-0.268-0.274-0.398    l-0.675-0.929c-0.032-0.044-0.065-0.088-0.098-0.132l-0.113-0.149c-0.174-0.235-0.354-0.467-0.53-0.701l-0.139-0.184    c-0.038-0.051-0.076-0.101-0.115-0.15l-0.552-0.716c-0.07-0.09-0.141-0.178-0.213-0.266c-0.188-0.227-0.376-0.472-0.57-0.725    c-0.135-0.179-0.27-0.35-0.406-0.52l-0.056-0.069c-0.119-0.159-0.243-0.313-0.371-0.465l-0.082-0.097    c-0.234-0.286-0.479-0.564-0.717-0.848c-0.219-0.277-0.44-0.543-0.688-0.829c-0.268-0.32-0.608-0.725-1.024-1.167    c-0.092-0.108-0.189-0.22-0.295-0.34c-0.124-0.153-0.252-0.303-0.385-0.449l-0.166-0.182c-0.033-0.037-0.066-0.073-0.099-0.109    l-0.56-0.614c-0.146-0.164-0.299-0.329-0.453-0.493l-0.086-0.092c-0.146-0.167-0.298-0.329-0.455-0.485    c-0.208-0.209-0.419-0.415-0.627-0.643c-0.091-0.099-0.206-0.218-0.3-0.313l-0.182-0.19c-0.197-0.208-0.395-0.415-0.537-0.556    c-0.025-0.025-0.051-0.05-0.077-0.076c-0.006-0.006-0.012-0.012-0.018-0.019c-0.005-0.005-0.011-0.01-0.017-0.015    c-19.713-19.883-45.976-30.832-73.972-30.832c-57.446,0-104.181,46.737-104.181,104.184s46.735,104.184,104.181,104.184    c4.671,0,9.345-0.317,13.975-0.945c0.192,0.615,0.404,1.215,0.602,1.826c0.187,0.577,0.376,1.154,0.572,1.736    c4.33,12.897,9.95,24.781,16.84,35.515C191.682,417.889,180.971,419.067,170.116,419.067z M175.883,322.324    c0,3.486,0.094,6.718,0.286,9.872c0.038,1.841,0.36,11.267,2.951,24.559c-2.991,0.323-5.998,0.492-9.005,0.492    c-46.32,0-84.004-37.686-84.004-84.007s37.684-84.007,84.004-84.007c19.138,0,37.26,6.368,52.055,18.102    C192.637,238.113,175.883,279.416,175.883,322.324z M341.884,468.153c-28.209,0-55.565-8.053-79.111-23.29    c-0.246-0.159-0.5-0.308-0.759-0.445c-13.788-7.302-25.546-17.027-35.237-29.044c-0.064-0.085-0.117-0.177-0.184-0.26    c-3.556-4.435-6.821-9.166-9.797-14.173c-0.22-0.372-0.438-0.746-0.656-1.122c-0.596-1.027-1.181-2.064-1.753-3.114    c-0.601-1.108-1.194-2.225-1.769-3.36c-0.217-0.427-0.432-0.856-0.645-1.287c-2.521-5.115-4.794-10.494-6.796-16.153    c-8.477-23.962-8.835-44.021-8.837-44.204c-0.002-0.178-0.008-0.355-0.02-0.533c-0.176-2.804-0.261-5.697-0.261-8.844    c0-37.537,14.584-73.682,40.328-100.686c0.074,0.092,0.148,0.192,0.222,0.282l1.623,2.161c0.13,0.193,0.264,0.376,0.398,0.561    c0.277,0.39,0.548,0.782,0.818,1.177c0.044,0.065,0.103,0.15,0.139,0.203c0.102,0.146,0.206,0.29,0.308,0.45    c0.096,0.15,0.195,0.298,0.299,0.444l0.1,0.156c0.03,0.046,0.062,0.094,0.091,0.141c0.249,0.379,0.492,0.761,0.735,1.144    c0.037,0.062,0.072,0.124,0.11,0.185l0.436,0.697c0.047,0.075,0.094,0.148,0.143,0.221c0.104,0.156,0.196,0.322,0.29,0.482    l0.188,0.317c0,0.001,0.001,0.002,0.002,0.003c0.222,0.373,0.446,0.744,0.663,1.12c0.139,0.247,0.275,0.495,0.421,0.738    c0.014,0.026,0.029,0.053,0.043,0.08c0.096,0.191,0.198,0.379,0.307,0.564c0.012,0.021,0.022,0.04,0.034,0.061    c0.234,0.427,0.47,0.852,0.697,1.282l0.024,0.048c0.032,0.065,0.065,0.129,0.1,0.194c0.155,0.292,0.308,0.585,0.451,0.878    c0.051,0.101,0.101,0.203,0.151,0.304c0.008,0.016,0.015,0.032,0.023,0.048l0.121,0.242c0.056,0.113,0.113,0.225,0.168,0.338    c0.173,0.346,0.349,0.69,0.502,1.036c0.016,0.034,0.031,0.068,0.046,0.103l1.021,2.239c0.176,0.388,0.341,0.787,0.509,1.183    c0.187,0.445,0.37,0.893,0.549,1.342c0.171,0.435,0.345,0.869,0.504,1.308c0.029,0.08,0.063,0.157,0.094,0.236    c0.586,1.557,1.132,3.129,1.624,4.72c0.056,0.184,0.117,0.368,0.167,0.552c0.001,0.005,0.003,0.011,0.005,0.016    c0.25,0.828,0.49,1.659,0.714,2.495c0.023,0.09,0.047,0.179,0.071,0.269c0.22,0.833,0.425,1.669,0.619,2.509    c0.056,0.24,0.108,0.48,0.162,0.721c0.161,0.725,0.313,1.452,0.454,2.182c0.043,0.219,0.086,0.438,0.127,0.656    c0.534,2.872,0.92,5.78,1.152,8.717l0.014,0.177c-10.515,16.64-16.072,35.818-16.101,55.674c-0.004,1.342,0.021,2.646,0.064,3.927    c0,0.122-0.005,0.244,0,0.366c0.005,0.13,0.018,0.252,0.023,0.382c0.048,1.174,0.121,2.316,0.208,3.444    c0.016,0.206,0.029,0.416,0.047,0.62c1.703,20.454,9.633,33.476,19.369,49.452c2.619,4.298,5.328,8.743,8.144,13.702    c1.236,2.177,3.214,3.806,5.542,4.594c19.33,17.895,44.285,27.699,70.757,27.699c23.4,0,45.499-7.569,63.909-21.889    c4.398-3.421,5.19-9.759,1.769-14.157s-9.759-5.189-14.157-1.769c-14.835,11.539-32.65,17.638-51.521,17.638    c-19.132,0-37.269-6.372-52.054-18.082c29.533-30.803,46.288-72.104,46.288-114.983c0-11.65-1.2-23.182-3.563-34.4    c3.087-0.343,6.203-0.521,9.33-0.521c39.826,0,74.447,28.261,82.325,67.212c1.115,5.475,1.68,11.125,1.68,16.794    c0,5.572,4.517,10.088,10.088,10.088s10.088-4.517,10.088-10.088c0-7.018-0.702-14.022-2.083-20.807    c-9.771-48.312-52.709-83.376-102.098-83.376c-4.951,0-9.885,0.35-14.754,1.043c-0.147-0.428-0.311-0.848-0.461-1.275    c-0.146-0.416-0.285-0.84-0.433-1.25c-0.076-0.218-0.161-0.445-0.264-0.711c-0.005-0.014-0.01-0.028-0.015-0.042    c-0.087-0.249-0.186-0.485-0.276-0.73c-0.246-0.659-0.493-1.317-0.747-1.972c-0.043-0.11-0.083-0.224-0.126-0.334l-0.354-0.899    c-0.014-0.035-0.028-0.07-0.042-0.105c-0.114-0.281-0.229-0.55-0.343-0.827c-0.356-0.883-0.71-1.767-1.082-2.644    c-0.007-0.018-0.014-0.035-0.021-0.053l-0.07-0.167c-0.039-0.092-0.078-0.185-0.12-0.276c-0.167-0.372-0.328-0.745-0.488-1.118    c-0.188-0.437-0.376-0.873-0.572-1.31c-0.018-0.039-0.048-0.106-0.066-0.145c-0.04-0.086-0.08-0.168-0.12-0.254    c-0.627-1.392-1.279-2.772-1.944-4.146c-0.063-0.143-0.123-0.289-0.192-0.429l-0.291-0.582c-0.251-0.51-0.507-1.019-0.764-1.526    l-0.046-0.093c-0.021-0.042-0.042-0.078-0.063-0.117c-0.099-0.194-0.202-0.387-0.302-0.581c-0.02-0.04-0.04-0.08-0.06-0.12    l-0.192-0.389c-0.024-0.048-0.049-0.096-0.074-0.144c-0.165-0.316-0.33-0.617-0.495-0.925c-1.354-2.571-2.774-5.108-4.266-7.609    c-0.1-0.169-0.198-0.339-0.3-0.506c-0.121-0.204-0.246-0.409-0.372-0.615c-0.107-0.176-0.218-0.353-0.321-0.537    c-0.111-0.2-0.229-0.396-0.354-0.589l-0.323-0.506c-0.738-1.185-1.5-2.356-2.27-3.523c-0.19-0.297-0.381-0.601-0.571-0.886    c-0.021-0.031-0.042-0.063-0.064-0.094l-0.098-0.144c-0.12-0.179-0.232-0.363-0.354-0.542c11.111-2.658,22.519-4,34.067-4    c12.276,0,24.41,1.52,36.141,4.515c4.589,11.825,9.994,23.851,15.348,35.755l0.063,0.139c1.672,3.718,5.336,5.952,9.202,5.952    c1.162,0,2.342-0.202,3.491-0.626c9.993-3.688,20.068-7.407,29.771-11.371c33.012,27.828,51.837,68.132,51.837,111.492    C487.737,402.734,422.308,468.153,341.884,468.153z" fill="#E2247A"/></g></g></svg>